<?xml version="1.0" encoding="UTF-8"?>
<svg xmlns="http://www.w3.org/2000/svg" viewBox="0 0 306.9 122.0" width="306.9mm" height="122.0mm">
  <g transform="translate(-251.429,-203.524) scale(2.61905)">
  <text
       style="font-style:normal;font-variant:normal;font-weight:bold;font-stretch:normal;font-size:26.8487px;line-height:1.25;font-family:Cambria;-inkscape-font-specification:'Cambria, Bold';font-variant-ligatures:none;font-variant-caps:normal;font-variant-numeric:normal;font-variant-east-asian:normal;text-align:center;text-anchor:middle;fill:#ac9d93;stroke-width:0.279678"
       x="149.7682"
       y="92.090897"
       transform="scale(0.81756951,1.2231376)"><tspan
         style="font-style:normal;font-variant:normal;font-weight:bold;font-stretch:normal;font-size:26.8487px;font-family:Cambria;-inkscape-font-specification:'Cambria, Bold';font-variant-ligatures:none;font-variant-caps:normal;font-variant-numeric:normal;font-variant-east-asian:normal;fill:#ac9d93;stroke-width:0.279678"
         x="149.7682"
         y="92.090897">W</tspan></text>  <text
       style="font-size:25.4531px;line-height:1.25;font-family:Cambria;-inkscape-font-specification:'Cambria, Normal';font-variant-ligatures:none;text-align:center;text-anchor:middle;fill:#4d4d4d;stroke-width:0.265136"
       x="118.12984"
       y="110.02225"
       transform="scale(0.99791545,1.0020889)"><tspan
         style="fill:#4d4d4d;stroke-width:0.265136"
         x="118.12984"
         y="110.02225">F</tspan></text>  <text
       style="font-size:18.9991px;line-height:1.25;font-family:Cambria;-inkscape-font-specification:'Cambria, Normal';font-variant-ligatures:none;text-align:center;text-anchor:middle;fill:#4d4d4d;stroke-width:0.19791"
       x="113.60025"
       y="118.88394"
       transform="scale(1.0866364,0.92027103)"><tspan
         style="fill:#4d4d4d;stroke-width:0.19791"
         x="113.60025"
         y="118.88394">J</tspan></text>
</g>
  <path fill="#4d4d4d" transform="translate(117.238,58.920) scale(0.014648,-0.014648)" d="M430 1456V0H130V1456ZM1010 834V600H348V834ZM1080 1456V1221H348V1456Z"/>  <path fill="#4d4d4d" transform="translate(133.703,58.920) scale(0.014648,-0.014648)" d="M719 447V1456H1018V447Q1018 301 954.0 196.5Q890 92 779.5 36.0Q669 -20 531 -20Q388 -20 278.0 28.0Q168 76 105.0 175.5Q42 275 42 428H343Q343 348 365.5 301.0Q388 254 430.0 234.0Q472 214 531 214Q588 214 630.0 241.0Q672 268 695.5 320.0Q719 372 719 447Z"/>  <path fill="#4d4d4d" transform="translate(150.461,58.920) scale(0.014648,-0.014648)" d="M481 231 771 1456H933L970 1252L661 0H487ZM332 1456 572 231 552 0H358L35 1456ZM1225 236 1462 1456H1759L1437 0H1243ZM1024 1456 1316 226 1308 0H1134L823 1253L863 1456Z"/>  <path fill="#4d4d4d" transform="translate(184.167,58.920) scale(0.014648,-0.014648)" d="M888 381Q888 420 876.5 451.5Q865 483 834.0 509.5Q803 536 747.0 562.0Q691 588 602 616Q503 648 414.5 688.0Q326 728 258.5 781.5Q191 835 152.5 906.0Q114 977 114 1071Q114 1162 154.0 1236.5Q194 1311 266.0 1364.5Q338 1418 436.5 1447.0Q535 1476 653 1476Q814 1476 934.0 1418.0Q1054 1360 1120.5 1259.0Q1187 1158 1187 1028H889Q889 1092 862.5 1140.5Q836 1189 782.5 1217.0Q729 1245 648 1245Q570 1245 518.0 1221.5Q466 1198 440.0 1158.5Q414 1119 414 1070Q414 1033 432.5 1003.0Q451 973 488.0 947.0Q525 921 579.0 898.0Q633 875 704 853Q823 817 913.5 772.0Q1004 727 1065.0 671.0Q1126 615 1157.0 544.0Q1188 473 1188 383Q1188 288 1151.0 213.0Q1114 138 1044.0 86.0Q974 34 877.0 7.0Q780 -20 660 -20Q552 -20 447.0 8.5Q342 37 256.5 95.0Q171 153 120.0 243.0Q69 333 69 456H370Q370 388 391.0 341.0Q412 294 450.5 265.0Q489 236 542.5 223.0Q596 210 660 210Q738 210 788.5 232.0Q839 254 863.5 293.0Q888 332 888 381Z"/>  <path fill="#4d4d4d" transform="translate(202.638,58.920) scale(0.014648,-0.014648)" d="M433 122 720 1082H1029L594 -163Q580 -204 556.5 -251.0Q533 -298 493.5 -340.5Q454 -383 394.5 -410.0Q335 -437 249 -437Q208 -437 182.0 -432.0Q156 -427 120 -418V-207Q131 -207 143.0 -207.5Q155 -208 166 -208Q223 -208 259.0 -195.0Q295 -182 317.0 -155.5Q339 -129 352 -87ZM313 1082 548 298 589 -7 393 -28 4 1082Z"/>  <path fill="#4d4d4d" transform="translate(217.741,58.920) scale(0.014648,-0.014648)" d="M697 299Q697 330 679.0 355.0Q661 380 612.5 401.5Q564 423 473 441Q391 459 320.5 486.5Q250 514 198.5 553.0Q147 592 118.0 645.5Q89 699 89 768Q89 836 118.5 896.0Q148 956 203.5 1002.5Q259 1049 339.5 1075.5Q420 1102 521 1102Q662 1102 763.5 1057.0Q865 1012 919.5 933.5Q974 855 974 755H686Q686 797 668.5 830.5Q651 864 614.5 883.5Q578 903 520 903Q472 903 437.0 886.5Q402 870 383.5 842.5Q365 815 365 782Q365 757 375.5 737.5Q386 718 410.0 702.0Q434 686 472.5 672.5Q511 659 568 648Q685 624 777.0 585.5Q869 547 923.0 481.5Q977 416 977 310Q977 238 945.0 178.0Q913 118 853.0 73.5Q793 29 709.5 4.5Q626 -20 522 -20Q371 -20 266.5 34.0Q162 88 108.5 171.5Q55 255 55 343H328Q330 284 358.5 248.0Q387 212 431.5 196.0Q476 180 528 180Q584 180 621.0 195.5Q658 211 677.5 237.5Q697 264 697 299Z"/>  <path fill="#4d4d4d" transform="translate(233.151,58.920) scale(0.014648,-0.014648)" d="M642 1082V878H12V1082ZM168 1349H456V326Q456 279 468.5 254.0Q481 229 506.0 219.5Q531 210 569 210Q596 210 617.5 212.5Q639 215 654 218L655 6Q618 -6 575.0 -13.0Q532 -20 480 -20Q385 -20 314.5 11.5Q244 43 206.0 113.0Q168 183 168 297Z"/>  <path fill="#4d4d4d" transform="translate(243.303,58.920) scale(0.014648,-0.014648)" d="M610 -20Q484 -20 384.0 20.5Q284 61 214.5 133.0Q145 205 108.0 300.5Q71 396 71 504V544Q71 667 106.0 769.0Q141 871 206.5 946.0Q272 1021 366.0 1061.5Q460 1102 578 1102Q693 1102 782.0 1064.0Q871 1026 931.5 956.0Q992 886 1023.0 788.5Q1054 691 1054 572V452H194V644H771V666Q771 726 749.5 773.5Q728 821 685.0 849.0Q642 877 575 877Q518 877 477.0 852.0Q436 827 410.5 782.0Q385 737 372.5 676.5Q360 616 360 544V504Q360 439 378.5 384.0Q397 329 431.5 289.0Q466 249 515.5 227.0Q565 205 628 205Q706 205 773.5 235.5Q841 266 890 328L1030 176Q996 127 937.5 82.0Q879 37 797.0 8.5Q715 -20 610 -20Z"/>  <path fill="#4d4d4d" transform="translate(259.504,58.920) scale(0.014648,-0.014648)" d="M400 858V0H111V1082H382ZM360 579H280Q280 692 307.5 787.5Q335 883 388.5 953.5Q442 1024 521.0 1063.0Q600 1102 704 1102Q776 1102 836.0 1080.5Q896 1059 939.5 1013.5Q983 968 1007.0 895.5Q1031 823 1031 722V0H743V690Q743 764 723.0 804.0Q703 844 666.5 860.0Q630 876 579 876Q523 876 481.5 853.0Q440 830 413.0 789.5Q386 749 373.0 695.0Q360 641 360 579ZM1004 612 901 599Q901 705 927.5 796.0Q954 887 1006.5 956.0Q1059 1025 1137.0 1063.5Q1215 1102 1317 1102Q1395 1102 1459.0 1079.5Q1523 1057 1568.5 1008.5Q1614 960 1638.5 882.0Q1663 804 1663 691V0H1374V691Q1374 766 1354.5 805.5Q1335 845 1298.5 860.5Q1262 876 1212 876Q1160 876 1121.0 855.5Q1082 835 1056.0 799.0Q1030 763 1017.0 715.5Q1004 668 1004 612Z"/>  <path fill="#4d4d4d" transform="translate(285.490,58.920) scale(0.014648,-0.014648)" d="M697 299Q697 330 679.0 355.0Q661 380 612.5 401.5Q564 423 473 441Q391 459 320.5 486.5Q250 514 198.5 553.0Q147 592 118.0 645.5Q89 699 89 768Q89 836 118.5 896.0Q148 956 203.5 1002.5Q259 1049 339.5 1075.5Q420 1102 521 1102Q662 1102 763.5 1057.0Q865 1012 919.5 933.5Q974 855 974 755H686Q686 797 668.5 830.5Q651 864 614.5 883.5Q578 903 520 903Q472 903 437.0 886.5Q402 870 383.5 842.5Q365 815 365 782Q365 757 375.5 737.5Q386 718 410.0 702.0Q434 686 472.5 672.5Q511 659 568 648Q685 624 777.0 585.5Q869 547 923.0 481.5Q977 416 977 310Q977 238 945.0 178.0Q913 118 853.0 73.5Q793 29 709.5 4.5Q626 -20 522 -20Q371 -20 266.5 34.0Q162 88 108.5 171.5Q55 255 55 343H328Q330 284 358.5 248.0Q387 212 431.5 196.0Q476 180 528 180Q584 180 621.0 195.5Q658 211 677.5 237.5Q697 264 697 299Z"/>  <path fill="#999999" transform="translate(139.548,81.600) scale(0.006836,-0.006836)" d="M529 694V591H50V694Z"/>  <path fill="#999999" transform="translate(146.971,81.600) scale(0.006836,-0.006836)" d="M308 1456V0H185V1456ZM986 787V680H268V787ZM1087 1456V1350H268V1456Z"/>  <path fill="#999999" transform="translate(154.846,81.600) scale(0.006836,-0.006836)" d="M815 194V752Q815 829 783.0 885.0Q751 941 689.0 971.0Q627 1001 536 1001Q452 1001 386.5 971.5Q321 942 283.5 892.5Q246 843 246 783L127 784Q127 845 156.5 902.0Q186 959 241.0 1004.0Q296 1049 372.5 1075.5Q449 1102 542 1102Q657 1102 745.5 1063.0Q834 1024 884.5 946.0Q935 868 935 750V227Q935 171 943.5 111.0Q952 51 968 13V0H840Q828 36 821.5 90.5Q815 145 815 194ZM843 630 845 538H611Q519 538 446.5 521.5Q374 505 324.0 474.0Q274 443 247.5 398.5Q221 354 221 298Q221 240 250.0 192.0Q279 144 334.0 116.0Q389 88 464 88Q563 88 639.5 124.5Q716 161 766.0 221.0Q816 281 833 352L885 283Q872 234 837.5 181.0Q803 128 748.5 82.5Q694 37 619.5 8.5Q545 -20 450 -20Q345 -20 266.0 20.5Q187 61 144.0 130.5Q101 200 101 288Q101 367 135.0 430.5Q169 494 233.0 538.5Q297 583 388.5 606.5Q480 630 594 630Z"/>  <path fill="#999999" transform="translate(162.352,81.600) scale(0.006836,-0.006836)" d="M291 1536V0H171V1536Z"/>  <path fill="#999999" transform="translate(165.497,81.600) scale(0.006836,-0.006836)" d="M277 1536V0H157V1536ZM955 1082 450 580 234 372 217 490 390 677 804 1082ZM851 0 400 562 465 666 995 0Z"/>  <path fill="#999999" transform="translate(172.360,81.600) scale(0.006836,-0.006836)" d="M529 694V591H50V694Z"/>  <path fill="#999999" transform="translate(176.373,81.600) scale(0.006836,-0.006836)" d="M828 434V1456H951V434Q951 287 894.0 186.0Q837 85 737.5 32.5Q638 -20 512 -20Q381 -20 281.5 26.0Q182 72 127.0 166.0Q72 260 72 402H195Q195 297 232.5 226.5Q270 156 341.0 121.0Q412 86 512 86Q600 86 671.5 125.0Q743 164 785.5 242.0Q828 320 828 434Z"/>  <path fill="#999999" transform="translate(184.084,81.600) scale(0.006836,-0.006836)" d="M815 194V752Q815 829 783.0 885.0Q751 941 689.0 971.0Q627 1001 536 1001Q452 1001 386.5 971.5Q321 942 283.5 892.5Q246 843 246 783L127 784Q127 845 156.5 902.0Q186 959 241.0 1004.0Q296 1049 372.5 1075.5Q449 1102 542 1102Q657 1102 745.5 1063.0Q834 1024 884.5 946.0Q935 868 935 750V227Q935 171 943.5 111.0Q952 51 968 13V0H840Q828 36 821.5 90.5Q815 145 815 194ZM843 630 845 538H611Q519 538 446.5 521.5Q374 505 324.0 474.0Q274 443 247.5 398.5Q221 354 221 298Q221 240 250.0 192.0Q279 144 334.0 116.0Q389 88 464 88Q563 88 639.5 124.5Q716 161 766.0 221.0Q816 281 833 352L885 283Q872 234 837.5 181.0Q803 128 748.5 82.5Q694 37 619.5 8.5Q545 -20 450 -20Q345 -20 266.0 20.5Q187 61 144.0 130.5Q101 200 101 288Q101 367 135.0 430.5Q169 494 233.0 538.5Q297 583 388.5 606.5Q480 630 594 630Z"/>  <path fill="#999999" transform="translate(191.590,81.600) scale(0.006836,-0.006836)" d="M277 1536V0H157V1536ZM955 1082 450 580 234 372 217 490 390 677 804 1082ZM851 0 400 562 465 666 995 0Z"/>  <path fill="#999999" transform="translate(198.453,81.600) scale(0.006836,-0.006836)" d="M91 525V557Q91 675 125.5 775.0Q160 875 223.0 948.0Q286 1021 375.0 1061.5Q464 1102 573 1102Q683 1102 772.5 1061.5Q862 1021 925.5 948.0Q989 875 1023.0 775.0Q1057 675 1057 557V525Q1057 407 1023.0 307.5Q989 208 925.5 134.5Q862 61 773.5 20.5Q685 -20 575 -20Q465 -20 376.0 20.5Q287 61 223.5 134.5Q160 208 125.5 307.5Q91 407 91 525ZM211 557V525Q211 436 234.5 356.5Q258 277 304.5 215.5Q351 154 419.0 118.5Q487 83 575 83Q663 83 730.5 118.5Q798 154 844.0 215.5Q890 277 913.5 356.5Q937 436 937 525V557Q937 645 913.5 724.0Q890 803 843.5 865.0Q797 927 729.0 963.0Q661 999 573 999Q486 999 418.5 963.0Q351 927 304.5 865.0Q258 803 234.5 724.0Q211 645 211 557Z"/>  <path fill="#999999" transform="translate(206.301,81.600) scale(0.006836,-0.006836)" d="M155 1536H275V210L267 0H155ZM1028 551V530Q1028 409 1000.5 308.5Q973 208 920.0 134.5Q867 61 790.0 20.5Q713 -20 615 -20Q518 -20 443.0 11.0Q368 42 315.0 98.0Q262 154 229.5 231.0Q197 308 185 399V666Q200 764 233.0 844.0Q266 924 318.5 982.0Q371 1040 444.5 1071.0Q518 1102 613 1102Q712 1102 789.5 1063.5Q867 1025 920.0 952.5Q973 880 1000.5 778.5Q1028 677 1028 551ZM907 530V551Q907 646 889.0 727.0Q871 808 832.5 868.5Q794 929 734.0 963.0Q674 997 590 997Q504 997 444.0 968.5Q384 940 344.5 893.5Q305 847 282.0 792.0Q259 737 248 684V374Q265 298 307.0 232.5Q349 167 419.5 126.5Q490 86 592 86Q674 86 733.5 119.5Q793 153 831.5 213.5Q870 274 888.5 355.0Q907 436 907 530Z"/>  <path fill="#999999" transform="translate(217.477,81.600) scale(0.006836,-0.006836)" d="M554 385 870 1456H969L890 1138L552 0H457ZM187 1456 453 395 533 0H434L61 1456ZM1395 396 1657 1456H1783L1411 0H1312ZM981 1456 1292 385 1388 0H1293L963 1138L882 1456Z"/>  <path fill="#999999" transform="translate(230.028,81.600) scale(0.006836,-0.006836)" d="M576 -20Q470 -20 381.0 19.0Q292 58 227.0 129.0Q162 200 126.0 297.5Q90 395 90 511V554Q90 679 127.5 780.0Q165 881 229.5 953.5Q294 1026 377.5 1064.0Q461 1102 554 1102Q657 1102 736.5 1065.5Q816 1029 871.0 962.5Q926 896 954.0 805.5Q982 715 982 606V533H163V636H862V649Q860 740 825.5 819.5Q791 899 723.5 949.0Q656 999 554 999Q477 999 414.0 967.0Q351 935 305.5 875.5Q260 816 235.0 734.5Q210 653 210 554V511Q210 422 237.0 344.0Q264 266 313.0 207.5Q362 149 430.0 115.5Q498 82 581 82Q676 82 750.5 117.5Q825 153 884 230L959 172Q923 120 871.0 76.5Q819 33 746.0 6.5Q673 -20 576 -20Z"/>  <path fill="#999999" transform="translate(237.267,81.600) scale(0.006836,-0.006836)" d="M291 1082V0H171V1082ZM150 1394Q150 1429 171.5 1452.5Q193 1476 232 1476Q270 1476 292.5 1452.5Q315 1429 315 1394Q315 1362 292.5 1338.5Q270 1315 232 1315Q193 1315 171.5 1338.5Q150 1362 150 1394Z"/>  <path fill="#999999" transform="translate(240.412,81.600) scale(0.006836,-0.006836)" d="M869 1082H980V19Q980 -121 926.5 -222.5Q873 -324 775.5 -377.5Q678 -431 547 -431Q479 -431 408.5 -411.0Q338 -391 275.5 -349.5Q213 -308 169 -246L237 -173Q302 -254 377.0 -291.5Q452 -329 539 -329Q642 -329 713.5 -288.0Q785 -247 822.5 -170.0Q860 -93 860 15V844ZM109 530V551Q109 677 137.5 778.5Q166 880 220.0 952.5Q274 1025 351.5 1063.5Q429 1102 527 1102Q622 1102 695.0 1071.0Q768 1040 820.5 982.0Q873 924 905.5 844.0Q938 764 953 666V399Q941 308 909.0 231.0Q877 154 824.0 98.0Q771 42 696.5 11.0Q622 -20 525 -20Q428 -20 351.0 20.5Q274 61 220.0 134.5Q166 208 137.5 308.5Q109 409 109 530ZM229 551V530Q229 436 248.0 355.0Q267 274 306.0 213.5Q345 153 405.0 119.5Q465 86 547 86Q650 86 719.5 125.5Q789 165 830.0 230.5Q871 296 890 374V684Q879 737 856.5 792.0Q834 847 794.5 893.5Q755 940 695.0 968.5Q635 997 549 997Q466 997 405.5 963.0Q345 929 306.0 868.5Q267 808 248.0 727.0Q229 646 229 551Z"/>  <path fill="#999999" transform="translate(248.184,81.600) scale(0.006836,-0.006836)" d="M815 194V752Q815 829 783.0 885.0Q751 941 689.0 971.0Q627 1001 536 1001Q452 1001 386.5 971.5Q321 942 283.5 892.5Q246 843 246 783L127 784Q127 845 156.5 902.0Q186 959 241.0 1004.0Q296 1049 372.5 1075.5Q449 1102 542 1102Q657 1102 745.5 1063.0Q834 1024 884.5 946.0Q935 868 935 750V227Q935 171 943.5 111.0Q952 51 968 13V0H840Q828 36 821.5 90.5Q815 145 815 194ZM843 630 845 538H611Q519 538 446.5 521.5Q374 505 324.0 474.0Q274 443 247.5 398.5Q221 354 221 298Q221 240 250.0 192.0Q279 144 334.0 116.0Q389 88 464 88Q563 88 639.5 124.5Q716 161 766.0 221.0Q816 281 833 352L885 283Q872 234 837.5 181.0Q803 128 748.5 82.5Q694 37 619.5 8.5Q545 -20 450 -20Q345 -20 266.0 20.5Q187 61 144.0 130.5Q101 200 101 288Q101 367 135.0 430.5Q169 494 233.0 538.5Q297 583 388.5 606.5Q480 630 594 630Z"/>  <path fill="#999999" transform="translate(255.690,81.600) scale(0.006836,-0.006836)" d="M276 851V0H157V1082H271ZM250 608 197 638Q202 734 235.0 818.0Q268 902 324.5 966.0Q381 1030 458.0 1066.0Q535 1102 628 1102Q709 1102 773.0 1080.0Q837 1058 881.5 1010.5Q926 963 949.5 887.5Q973 812 973 705V0H853V706Q853 817 822.0 880.5Q791 944 734.0 971.0Q677 998 599 998Q513 998 448.5 960.5Q384 923 340.5 863.5Q297 804 274.0 736.5Q251 669 250 608Z"/>  <path fill="#999999" transform="translate(263.388,81.600) scale(0.006836,-0.006836)" d="M860 210V1536H980V0H868ZM109 530V551Q109 677 138.0 778.5Q167 880 221.5 952.5Q276 1025 353.0 1063.5Q430 1102 527 1102Q622 1102 695.0 1071.0Q768 1040 820.5 982.0Q873 924 905.5 844.0Q938 764 953 666V399Q941 308 909.0 231.0Q877 154 824.0 98.0Q771 42 696.5 11.0Q622 -20 525 -20Q429 -20 352.0 20.5Q275 61 221.0 134.5Q167 208 138.0 308.5Q109 409 109 530ZM230 551V530Q230 436 249.0 355.0Q268 274 307.0 213.5Q346 153 406.0 119.5Q466 86 547 86Q650 86 720.0 125.5Q790 165 832.0 230.5Q874 296 893 374V684Q881 737 858.0 792.0Q835 847 795.5 893.5Q756 940 695.5 968.5Q635 997 549 997Q467 997 406.5 963.0Q346 929 307.0 868.5Q268 808 249.0 727.0Q230 646 230 551Z"/>  <path fill="#999999" transform="translate(274.578,81.600) scale(0.006836,-0.006836)" d="M529 694V591H50V694Z"/>
</svg>